<svg width="17" height="16" viewBox="0 0 17 16" fill="none" xmlns="http://www.w3.org/2000/svg">
<g clip-path="url(#clip0_4572_25369)">
<path d="M9.52748 7.99986L16.3895 1.13786C16.5109 1.01213 16.5781 0.843728 16.5766 0.66893C16.5751 0.494133 16.505 0.326924 16.3814 0.203319C16.2578 0.0797134 16.0905 0.00960079 15.9158 0.00808184C15.741 0.0065629 15.5726 0.0737592 15.4468 0.195198L8.58482 7.0572L1.72282 0.195198C1.59708 0.0737592 1.42868 0.0065629 1.25388 0.00808184C1.07909 0.00960079 0.911878 0.0797134 0.788273 0.203319C0.664667 0.326924 0.594555 0.494133 0.593036 0.66893C0.591517 0.843728 0.658713 1.01213 0.780152 1.13786L7.64215 7.99986L0.780152 14.8619C0.655171 14.9869 0.584961 15.1564 0.584961 15.3332C0.584961 15.51 0.655171 15.6795 0.780152 15.8045C0.90517 15.9295 1.07471 15.9997 1.25149 15.9997C1.42826 15.9997 1.5978 15.9295 1.72282 15.8045L8.58482 8.94253L15.4468 15.8045C15.5718 15.9295 15.7414 15.9997 15.9182 15.9997C16.0949 15.9997 16.2645 15.9295 16.3895 15.8045C16.5145 15.6795 16.5847 15.51 16.5847 15.3332C16.5847 15.1564 16.5145 14.9869 16.3895 14.8619L9.52748 7.99986Z" fill="#A1A5B3"/>
</g>
<defs>
<clipPath id="clip0_4572_25369">
<rect width="16" height="16" fill="white" transform="translate(0.584961)"/>
</clipPath>
</defs>
</svg>
