<svg width="17" height="16" viewBox="0 0 17 16" fill="none" xmlns="http://www.w3.org/2000/svg">
<path d="M9.44511 12.3933L5.72511 8.66661C5.60094 8.5417 5.53125 8.37274 5.53125 8.19661C5.53125 8.02049 5.60094 7.85152 5.72511 7.72661L9.44511 3.99994C9.53836 3.90593 9.65749 3.84181 9.78732 3.81576C9.91716 3.78971 10.0518 3.80292 10.1741 3.8537C10.2964 3.90448 10.4008 3.99052 10.474 4.10087C10.5472 4.21122 10.5859 4.34086 10.5851 4.47328V11.9199C10.5859 12.0524 10.5472 12.182 10.474 12.2924C10.4008 12.4027 10.2964 12.4887 10.1741 12.5395C10.0518 12.5903 9.91716 12.6035 9.78732 12.5775C9.65749 12.5514 9.53836 12.4873 9.44511 12.3933Z" fill="#4F80FD"/>
</svg>
