<svg width="17" height="16" viewBox="0 0 17 16" fill="none" xmlns="http://www.w3.org/2000/svg">
<path d="M4.85845 6H12.3118C12.4436 6.00055 12.5724 6.04019 12.6817 6.1139C12.791 6.18761 12.876 6.29208 12.926 6.4141C12.9759 6.53612 12.9886 6.67021 12.9623 6.79942C12.936 6.92863 12.8721 7.04715 12.7785 7.14L9.05845 10.86C8.99648 10.9225 8.92274 10.9721 8.8415 11.0059C8.76026 11.0398 8.67313 11.0572 8.58512 11.0572C8.49711 11.0572 8.40997 11.0398 8.32873 11.0059C8.24749 10.9721 8.17376 10.9225 8.11179 10.86L4.39179 7.14C4.29817 7.04715 4.23419 6.92863 4.20793 6.79942C4.18168 6.67021 4.19432 6.53612 4.24427 6.4141C4.29422 6.29208 4.37923 6.18761 4.48856 6.1139C4.59788 6.04019 4.7266 6.00055 4.85845 6Z" fill="#8C94A3"/>
</svg>
