<svg width="17" height="16" viewBox="0 0 17 16" fill="none" xmlns="http://www.w3.org/2000/svg">
<path d="M6.58496 11.9192V4.47121C6.58499 4.33938 6.6241 4.21051 6.69736 4.10091C6.77062 3.9913 6.87472 3.90587 6.99652 3.85543C7.11832 3.80498 7.25235 3.79178 7.38165 3.81749C7.51095 3.8432 7.62972 3.90667 7.72296 3.99988L11.447 7.72388C11.5719 7.8489 11.6421 8.01844 11.6421 8.19521C11.6421 8.37199 11.5719 8.54153 11.447 8.66655L7.72296 12.3905C7.62972 12.4838 7.51095 12.5472 7.38165 12.5729C7.25235 12.5986 7.11832 12.5854 6.99652 12.535C6.87472 12.4846 6.77062 12.3991 6.69736 12.2895C6.6241 12.1799 6.58499 12.051 6.58496 11.9192Z" fill="#4F80FD"/>
</svg>
