<svg width="21" height="20" viewBox="0 0 21 20" fill="none" xmlns="http://www.w3.org/2000/svg">
<ellipse cx="4.54003" cy="4.35865" rx="3.83413" ry="3.52564" fill="white"/>
<path d="M7.67416 15.6409C7.67416 17.1473 6.3274 18.4665 4.54003 18.4665C2.75266 18.4665 1.40589 17.1473 1.40589 15.6409C1.40589 14.1344 2.75266 12.8152 4.54003 12.8152C6.3274 12.8152 7.67416 14.1344 7.67416 15.6409Z" stroke="white" stroke-width="1.4"/>
<path d="M19.9436 4.35865C19.9436 5.86509 18.5968 7.18429 16.8095 7.18429C15.0221 7.18429 13.6753 5.86509 13.6753 4.35865C13.6753 2.85221 15.0221 1.53301 16.8095 1.53301C18.5968 1.53301 19.9436 2.85221 19.9436 4.35865Z" stroke="white" stroke-width="1.4"/>
<path d="M16.6562 12.5V19" stroke="white" stroke-width="1.5" stroke-linecap="round" stroke-linejoin="round"/>
<path d="M20.1906 15.75L13.1219 15.75" stroke="white" stroke-width="1.5" stroke-linecap="round" stroke-linejoin="round"/>
</svg>
