<svg width="17" height="16" viewBox="0 0 17 16" fill="none" xmlns="http://www.w3.org/2000/svg">
<g clip-path="url(#clip0_4572_23938)">
<path d="M7.17036 12.0813C7.95117 12.8627 9.21749 12.8631 9.9988 12.0822C9.99911 12.0819 9.99939 12.0817 9.9997 12.0813L12.1404 9.94069C12.3873 9.66759 12.3661 9.246 12.093 8.99906C11.8387 8.76916 11.4515 8.76956 11.1977 9L9.24705 10.9513L9.25171 0.666687C9.25167 0.298469 8.95321 0 8.58502 0C8.21683 0 7.91836 0.298469 7.91836 0.666656L7.91236 10.9387L5.97236 9C5.71186 8.73969 5.28967 8.73984 5.02936 9.00034C4.76905 9.26084 4.76921 9.68303 5.02971 9.94334L7.17036 12.0813Z" fill="#4F80FD"/>
<path d="M15.9183 10.6665C15.5501 10.6665 15.2516 10.965 15.2516 11.3332V13.9998C15.2516 14.368 14.9532 14.6665 14.585 14.6665H2.58496C2.21677 14.6665 1.9183 14.368 1.9183 13.9998V11.3332C1.9183 10.965 1.61984 10.6665 1.25165 10.6665C0.88343 10.6665 0.584961 10.965 0.584961 11.3332V13.9998C0.584961 15.1044 1.4804 15.9998 2.58496 15.9998H14.585C15.6895 15.9998 16.585 15.1044 16.585 13.9998V11.3332C16.585 10.965 16.2865 10.6665 15.9183 10.6665Z" fill="#4F80FD"/>
</g>
<defs>
<clipPath id="clip0_4572_23938">
<rect width="16" height="16" fill="white" transform="translate(0.584961)"/>
</clipPath>
</defs>
</svg>
