<svg width="17" height="16" viewBox="0 0 17 16" fill="none" xmlns="http://www.w3.org/2000/svg">
<g clip-path="url(#clip0_4572_24300)">
<path d="M8.58485 10.6658C10.0571 10.6658 11.2505 9.47234 11.2505 8.00014C11.2505 6.52793 10.0571 5.33447 8.58485 5.33447C7.11265 5.33447 5.91919 6.52793 5.91919 8.00014C5.91919 9.47234 7.11265 10.6658 8.58485 10.6658Z" fill="#B7BAC7"/>
<path d="M16.0962 6.28013C15.0625 4.59676 12.7114 1.77246 8.58495 1.77246C4.45848 1.77246 2.10735 4.59676 1.07373 6.28013C0.422037 7.33421 0.422037 8.66609 1.07373 9.7202C2.10735 11.4036 4.45848 14.2279 8.58495 14.2279C12.7114 14.2279 15.0625 11.4036 16.0962 9.7202C16.7479 8.66609 16.7479 7.33421 16.0962 6.28013ZM8.58495 11.9987C6.37664 11.9987 4.58643 10.2085 4.58643 8.00015C4.58643 5.79184 6.37664 4.00163 8.58495 4.00163C10.7933 4.00163 12.5835 5.79184 12.5835 8.00015C12.5812 10.2075 10.7923 11.9964 8.58495 11.9987Z" fill="#B7BAC7"/>
</g>
<defs>
<clipPath id="clip0_4572_24300">
<rect width="16" height="16" fill="white" transform="translate(0.584961)"/>
</clipPath>
</defs>
</svg>
