<svg width="17" height="16" viewBox="0 0 17 16" fill="none" xmlns="http://www.w3.org/2000/svg">
<g clip-path="url(#clip0_4572_24299)">
<path d="M1.36629 12.7459C0.866163 13.2459 0.585112 13.9241 0.584961 14.6312L0.584961 15.9999H1.95363C2.66081 15.9997 3.33898 15.7187 3.83896 15.2186L12.7343 6.32325L10.2616 3.85059L1.36629 12.7459Z" fill="#B7BAC7"/>
<path d="M16.0148 0.570239C15.8524 0.407729 15.6596 0.278809 15.4475 0.19085C15.2353 0.102891 15.0078 0.0576172 14.7781 0.0576172C14.5484 0.0576172 14.3209 0.102891 14.1088 0.19085C13.8966 0.278809 13.7038 0.407729 13.5414 0.570239L11.2041 2.90824L13.6768 5.38091L16.0148 3.04357C16.1773 2.88123 16.3062 2.68845 16.3942 2.47626C16.4821 2.26406 16.5274 2.03661 16.5274 1.80691C16.5274 1.5772 16.4821 1.34975 16.3942 1.13755C16.3062 0.925358 16.1773 0.73258 16.0148 0.570239Z" fill="#B7BAC7"/>
</g>
<defs>
<clipPath id="clip0_4572_24299">
<rect width="16" height="16" fill="white" transform="translate(0.584961)"/>
</clipPath>
</defs>
</svg>
