<svg width="17" height="16" viewBox="0 0 17 16" fill="none" xmlns="http://www.w3.org/2000/svg">
<g clip-path="url(#clip0_4572_23942)">
<path d="M15.9183 7.33333H9.25163V0.666667C9.25163 0.489856 9.18139 0.320286 9.05637 0.195262C8.93134 0.0702379 8.76177 0 8.58496 0V0C8.40815 0 8.23858 0.0702379 8.11356 0.195262C7.98853 0.320286 7.91829 0.489856 7.91829 0.666667V7.33333H1.25163C1.07482 7.33333 0.905247 7.40357 0.780223 7.5286C0.655199 7.65362 0.584961 7.82319 0.584961 8H0.584961C0.584961 8.17681 0.655199 8.34638 0.780223 8.47141C0.905247 8.59643 1.07482 8.66667 1.25163 8.66667H7.91829V15.3333C7.91829 15.5101 7.98853 15.6797 8.11356 15.8047C8.23858 15.9298 8.40815 16 8.58496 16C8.76177 16 8.93134 15.9298 9.05637 15.8047C9.18139 15.6797 9.25163 15.5101 9.25163 15.3333V8.66667H15.9183C16.0951 8.66667 16.2647 8.59643 16.3897 8.47141C16.5147 8.34638 16.585 8.17681 16.585 8C16.585 7.82319 16.5147 7.65362 16.3897 7.5286C16.2647 7.40357 16.0951 7.33333 15.9183 7.33333Z" fill="white"/>
</g>
<defs>
<clipPath id="clip0_4572_23942">
<rect width="16" height="16" fill="white" transform="translate(0.584961)"/>
</clipPath>
</defs>
</svg>
