<svg width="17" height="16" viewBox="0 0 17 16" fill="none" xmlns="http://www.w3.org/2000/svg">
<g clip-path="url(#clip0_4572_23957)">
<path d="M16.3895 14.8623L12.4102 10.883C13.4946 9.55674 14.0277 7.8644 13.8994 6.15605C13.771 4.4477 12.991 2.85403 11.7205 1.70469C10.4501 0.55535 8.78654 -0.0617289 7.07391 -0.0189077C5.36128 0.0239135 3.73062 0.723359 2.51922 1.93475C1.30783 3.14614 0.608386 4.7768 0.565565 6.48944C0.522744 8.20207 1.13982 9.86565 2.28916 11.1361C3.4385 12.4065 5.03217 13.1865 6.74052 13.3149C8.44888 13.4433 10.1412 12.9101 11.4675 11.8257L15.4468 15.805C15.5726 15.9264 15.741 15.9936 15.9158 15.9921C16.0905 15.9906 16.2578 15.9205 16.3814 15.7969C16.505 15.6733 16.5751 15.5061 16.5766 15.3313C16.5781 15.1565 16.5109 14.9881 16.3895 14.8623ZM7.25148 12.0003C6.19665 12.0003 5.1655 11.6875 4.28844 11.1015C3.41138 10.5155 2.72779 9.68253 2.32412 8.70799C1.92046 7.73345 1.81484 6.66109 2.02063 5.62653C2.22642 4.59196 2.73437 3.64165 3.48025 2.89577C4.22613 2.14989 5.17643 1.64194 6.211 1.43615C7.24557 1.23037 8.31792 1.33598 9.29246 1.73965C10.267 2.14332 11.1 2.82691 11.686 3.70397C12.272 4.58103 12.5848 5.61218 12.5848 6.66701C12.5832 8.08101 12.0208 9.43664 11.021 10.4365C10.0211 11.4363 8.66548 11.9988 7.25148 12.0003Z" fill="#8C94A3"/>
</g>
<defs>
<clipPath id="clip0_4572_23957">
<rect width="16" height="16" fill="white" transform="translate(0.584961)"/>
</clipPath>
</defs>
</svg>
