<svg width="17" height="16" viewBox="0 0 17 16" fill="none" xmlns="http://www.w3.org/2000/svg">
<path d="M14.5849 2.66666H12.5182C12.1992 1.11572 10.8349 0.002 9.25153 0H7.91818C6.33477 0.002 4.97046 1.11572 4.65153 2.66666H2.58487C2.21668 2.66666 1.91821 2.96513 1.91821 3.33331C1.91821 3.7015 2.21668 4 2.58487 4H3.25153V12.6667C3.25374 14.5067 4.74484 15.9978 6.58487 16H10.5849C12.4249 15.9978 13.916 14.5067 13.9182 12.6667V4H14.5849C14.9531 4 15.2515 3.70153 15.2515 3.33334C15.2515 2.96516 14.9531 2.66666 14.5849 2.66666ZM7.91821 11.3333C7.91821 11.7015 7.61974 12 7.25156 12C6.88334 12 6.58487 11.7015 6.58487 11.3333V7.33334C6.58487 6.96516 6.88334 6.66669 7.25152 6.66669C7.61971 6.66669 7.91818 6.96516 7.91818 7.33334V11.3333H7.91821ZM10.5849 11.3333C10.5849 11.7015 10.2864 12 9.91821 12C9.55003 12 9.25156 11.7015 9.25156 11.3333V7.33334C9.25156 6.96516 9.55003 6.66669 9.91821 6.66669C10.2864 6.66669 10.5849 6.96516 10.5849 7.33334V11.3333ZM6.03221 2.66666C6.31578 1.86819 7.0709 1.33434 7.91821 1.33331H9.25156C10.0989 1.33434 10.854 1.86819 11.1376 2.66666H6.03221Z" fill="#B7BAC7"/>
</svg>
