<svg width="25" height="24" viewBox="0 0 25 24" fill="none" xmlns="http://www.w3.org/2000/svg">
<path d="M12.745 13.53C12.725 13.53 12.695 13.53 12.675 13.53C12.645 13.53 12.605 13.53 12.575 13.53C10.305 13.46 8.605 11.69 8.605 9.50998C8.605 7.28998 10.415 5.47998 12.635 5.47998C14.855 5.47998 16.665 7.28998 16.665 9.50998C16.655 11.7 14.945 13.46 12.775 13.53C12.755 13.53 12.755 13.53 12.745 13.53ZM12.625 6.96998C11.225 6.96998 10.095 8.10998 10.095 9.49998C10.095 10.87 11.165 11.98 12.525 12.03C12.555 12.02 12.655 12.02 12.755 12.03C14.095 11.96 15.145 10.86 15.155 9.49998C15.155 8.10998 14.025 6.96998 12.625 6.96998Z" fill="#84849D"/>
<path d="M12.625 22.7498C9.935 22.7498 7.365 21.7498 5.375 19.9298C5.195 19.7698 5.115 19.5298 5.135 19.2998C5.265 18.1098 6.005 16.9998 7.235 16.1798C10.215 14.1998 15.045 14.1998 18.015 16.1798C19.245 17.0098 19.985 18.1098 20.115 19.2998C20.145 19.5398 20.055 19.7698 19.875 19.9298C17.885 21.7498 15.315 22.7498 12.625 22.7498ZM6.705 19.0998C8.365 20.4898 10.455 21.2498 12.625 21.2498C14.795 21.2498 16.885 20.4898 18.545 19.0998C18.365 18.4898 17.885 17.8998 17.175 17.4198C14.715 15.7798 10.545 15.7798 8.065 17.4198C7.355 17.8998 6.885 18.4898 6.705 19.0998Z" fill="#84849D"/>
<path d="M12.625 22.75C6.695 22.75 1.875 17.93 1.875 12C1.875 6.07 6.695 1.25 12.625 1.25C18.555 1.25 23.375 6.07 23.375 12C23.375 17.93 18.555 22.75 12.625 22.75ZM12.625 2.75C7.525 2.75 3.375 6.9 3.375 12C3.375 17.1 7.525 21.25 12.625 21.25C17.725 21.25 21.875 17.1 21.875 12C21.875 6.9 17.725 2.75 12.625 2.75Z" fill="#84849D"/>
</svg>
